<svg width="72" height="72" viewBox="0 0 72 72" fill="none" xmlns="http://www.w3.org/2000/svg">
<path d="M14.85 43.2899C13.365 47.0249 11.025 50.7149 7.89752 54.27C6.90752 55.395 6.77252 57.0149 7.5825 58.2749C8.21257 59.2649 9.24748 59.8049 10.3725 59.8049C10.6875 59.8049 11.0025 59.7825 11.3176 59.6699C17.9324 57.7349 33.3901 50.8724 33.8176 28.8674C33.975 20.3849 27.7651 13.095 19.6875 12.2625C15.21 11.8124 10.7551 13.2749 7.4475 16.2449C4.14007 19.2374 2.25 23.5125 2.25 27.9674C2.25 35.3924 7.51507 41.8949 14.85 43.2899Z" fill="currentColor"/>
<path d="M55.5977 12.2625C51.1426 11.8124 46.6877 13.2749 43.3802 16.2449C40.0727 19.2374 38.1826 23.5125 38.1826 27.9674C38.1826 35.3924 43.4477 41.8949 50.7827 43.2899C49.2976 47.0249 46.9577 50.7149 43.8301 54.2699C42.8401 55.3949 42.7051 57.0149 43.5153 58.2749C44.1452 59.2649 45.1802 59.8048 46.3052 59.8048C46.6201 59.8048 46.9352 59.7824 47.2502 59.6698C53.8652 57.7349 69.3227 50.8724 69.7502 28.8673V28.5524C69.7502 20.2049 63.6077 13.095 55.5977 12.2625Z" fill="currentColor"/>
</svg>
